<?xml version="1.0" standalone="no"?>
<!DOCTYPE svg PUBLIC "-//W3C//DTD SVG 20010904//EN"
 "http://www.w3.org/TR/2001/REC-SVG-20010904/DTD/svg10.dtd">
<svg version="1.0" xmlns="http://www.w3.org/2000/svg"
 width="80.000000pt" height="160.000000pt" viewBox="0 0 80.000000 160.000000"
 preserveAspectRatio="xMidYMid meet">
<metadata>
Created by potrace 1.15, written by Peter Selinger 2001-2017
</metadata>
<g transform="translate(0.000000,160.000000) scale(0.100000,-0.100000)"
fill="#000000" stroke="none">
<path d="M631 1573 c-36 -34 -590 -669 -614 -703 -19 -28 -23 -101 -6 -131 12
-24 576 -671 620 -711 23 -22 39 -28 73 -28 37 0 48 5 70 31 26 31 35 93 19
135 -4 10 -127 155 -275 323 -147 168 -268 308 -268 311 0 3 124 146 275 319
l275 313 0 53 c0 43 -5 60 -26 84 -22 26 -33 31 -70 31 -34 0 -50 -6 -73 -27z"/>
</g>
</svg>
