<?xml version="1.0" standalone="no"?>
<!DOCTYPE svg PUBLIC "-//W3C//DTD SVG 20010904//EN"
 "http://www.w3.org/TR/2001/REC-SVG-20010904/DTD/svg10.dtd">
<svg version="1.0" xmlns="http://www.w3.org/2000/svg"
 width="280.000000pt" height="220.000000pt" viewBox="0 0 280.000000 220.000000"
 preserveAspectRatio="xMidYMid meet">
<metadata>
Created by potrace 1.15, written by Peter Selinger 2001-2017
</metadata>
<g transform="translate(0.000000,220.000000) scale(0.100000,-0.100000)"
fill="#000000" stroke="none">
<path d="M2466 2127 c-16 -12 -319 -328 -673 -702 -721 -760 -745 -785 -765
-785 -8 0 -151 149 -318 330 -166 182 -311 335 -321 340 -10 6 -35 10 -55 10
-35 0 -47 -9 -141 -103 -100 -100 -103 -104 -103 -148 0 -32 8 -56 27 -84 27
-40 736 -822 818 -902 39 -38 49 -43 90 -43 44 0 51 4 105 58 44 44 1311 1379
1607 1694 48 51 53 61 53 103 0 42 -5 51 -61 113 -114 126 -136 142 -188 141
-31 0 -55 -7 -75 -22z"/>
</g>
</svg>
