<?xml version="1.0" standalone="no"?>
<!DOCTYPE svg PUBLIC "-//W3C//DTD SVG 20010904//EN"
 "http://www.w3.org/TR/2001/REC-SVG-20010904/DTD/svg10.dtd">
<svg version="1.0" xmlns="http://www.w3.org/2000/svg"
 width="130.000000pt" height="130.000000pt" viewBox="0 0 130.000000 130.000000"
 preserveAspectRatio="xMidYMid meet">
<metadata>
Created by potrace 1.15, written by Peter Selinger 2001-2017
</metadata>
<g transform="translate(0.000000,130.000000) scale(0.100000,-0.100000)"
fill="#000000" stroke="none">
<path d="M35 1265 c-20 -19 -25 -34 -25 -72 l0 -47 237 -238 237 -238 -237
-238 -237 -238 0 -47 c0 -66 31 -97 97 -97 l47 0 238 237 238 237 238 -237
238 -237 47 0 c66 0 97 31 97 97 l0 47 -237 238 -237 238 237 238 237 238 0
47 c0 66 -31 97 -97 97 l-47 0 -238 -237 -238 -237 -238 237 -238 237 -47 0
c-38 0 -53 -5 -72 -25z"/>
</g>
</svg>
