<?xml version="1.0" standalone="no"?>
<!DOCTYPE svg PUBLIC "-//W3C//DTD SVG 20010904//EN"
 "http://www.w3.org/TR/2001/REC-SVG-20010904/DTD/svg10.dtd">
<svg version="1.0" xmlns="http://www.w3.org/2000/svg"
 width="240.000000pt" height="260.000000pt" viewBox="0 0 240.000000 260.000000"
 preserveAspectRatio="xMidYMid meet">
<metadata>
Created by potrace 1.15, written by Peter Selinger 2001-2017
</metadata>
<g transform="translate(0.000000,260.000000) scale(0.100000,-0.100000)"
fill="#000000" stroke="none">
<path d="M205 2488 c-35 -19 -76 -62 -96 -100 -18 -36 -19 -74 -19 -1093 0
-1159 -4 -1081 59 -1148 55 -60 19 -57 781 -57 668 0 703 1 738 19 47 24 66
45 91 101 19 42 21 65 21 380 l1 335 239 260 c131 143 249 279 261 303 17 35
20 56 17 117 -3 62 -8 80 -33 117 -57 81 -163 110 -249 68 -25 -12 -78 -61
-136 -125 l-95 -106 -5 298 c-4 260 -7 302 -23 333 -24 48 -220 260 -265 287
l-37 23 -615 0 c-429 -1 -621 -4 -635 -12z m1045 -337 l0 -190 26 -20 c25 -19
40 -21 190 -21 l164 0 0 -265 0 -264 -117 -128 c-64 -70 -129 -142 -144 -158
-21 -22 -41 -73 -79 -194 -27 -90 -50 -174 -50 -188 0 -28 41 -73 67 -73 15 0
203 65 306 105 16 7 17 -8 17 -233 0 -206 -2 -243 -16 -256 -14 -14 -86 -16
-687 -14 l-671 3 -13 25 c-20 38 -14 2020 6 2043 12 15 60 17 507 17 l494 0 0
-189z m274 74 c58 -63 106 -121 106 -130 0 -13 -19 -15 -120 -15 l-120 0 0
130 c0 105 3 130 14 130 8 0 62 -52 120 -115z m425 -882 c-139 -153 -265 -289
-269 -291 -4 -1 -21 16 -39 38 l-32 40 28 34 c15 18 80 90 143 159 l115 126
40 -39 39 -40 -25 -27z"/>
<path d="M364 1779 c-28 -31 -25 -96 5 -120 22 -18 47 -19 496 -19 463 0 473
0 499 21 33 26 37 88 6 119 -19 19 -33 20 -503 20 -477 0 -484 0 -503 -21z"/>
<path d="M369 1501 c-18 -14 -24 -29 -24 -61 0 -32 6 -47 24 -61 22 -18 45
-19 368 -19 209 0 352 4 363 10 45 24 46 116 1 139 -13 7 -140 11 -364 11
-323 0 -346 -1 -368 -19z"/>
<path d="M369 1221 c-18 -14 -24 -29 -24 -61 0 -32 6 -47 24 -61 22 -18 45
-19 368 -19 224 0 351 4 364 11 45 23 44 115 -1 139 -11 6 -154 10 -363 10
-323 0 -346 -1 -368 -19z"/>
<path d="M382 953 c-22 -9 -44 -63 -37 -92 16 -63 3 -61 395 -61 387 0 374 -2
394 54 11 30 -13 86 -41 97 -25 9 -687 12 -711 2z"/>
<path d="M885 505 c-32 -31 -34 -86 -5 -115 19 -19 33 -20 249 -20 226 0 230
0 245 22 26 36 21 93 -10 117 -25 20 -39 21 -241 21 -214 0 -214 0 -238 -25z"/>
</g>
</svg>
