<?xml version="1.0" standalone="no"?>
<!DOCTYPE svg PUBLIC "-//W3C//DTD SVG 20010904//EN"
 "http://www.w3.org/TR/2001/REC-SVG-20010904/DTD/svg10.dtd">
<svg version="1.0" xmlns="http://www.w3.org/2000/svg"
 width="200.000000pt" height="260.000000pt" viewBox="0 0 200.000000 260.000000"
 preserveAspectRatio="xMidYMid meet">
<metadata>
Created by potrace 1.15, written by Peter Selinger 2001-2017
</metadata>
<g transform="translate(0.000000,260.000000) scale(0.100000,-0.100000)"
fill="#000000" stroke="none">
<path d="M1155 2293 c-180 -40 -354 -148 -470 -293 -68 -83 -136 -201 -167
-287 l-23 -63 -168 0 -169 0 -29 -29 c-24 -25 -29 -37 -29 -80 0 -42 5 -56 29
-83 l29 -33 144 -3 143 -3 0 -115 0 -114 -142 0 -141 0 -31 -31 c-26 -26 -31
-38 -31 -80 0 -40 5 -55 29 -81 l29 -33 167 -5 167 -5 27 -71 c104 -266 299
-465 542 -550 100 -35 290 -45 401 -20 137 30 294 121 391 224 43 47 47 55 47
100 0 59 -24 95 -74 112 -51 16 -81 4 -158 -65 -219 -198 -493 -206 -720 -21
-64 52 -137 145 -179 228 -16 32 -29 60 -29 63 0 3 160 5 355 5 396 0 399 0
430 66 22 47 13 98 -25 136 l-28 28 -395 0 -395 0 -6 23 c-8 29 -8 155 0 185
l6 22 380 0 c425 0 432 1 463 67 22 46 12 97 -25 135 l-28 28 -366 0 -366 0
26 53 c133 265 387 407 636 356 83 -17 191 -75 262 -141 73 -67 114 -83 163
-67 49 16 73 53 73 111 0 45 -4 53 -47 100 -94 99 -238 185 -371 219 -71 18
-268 25 -327 12z"/>
</g>
</svg>
