<?xml version="1.0" standalone="no"?>
<!DOCTYPE svg PUBLIC "-//W3C//DTD SVG 20010904//EN"
 "http://www.w3.org/TR/2001/REC-SVG-20010904/DTD/svg10.dtd">
<svg version="1.0" xmlns="http://www.w3.org/2000/svg"
 width="500.000000pt" height="444.000000pt" viewBox="0 0 500.000000 444.000000"
 preserveAspectRatio="xMidYMid meet">
<metadata>
Created by potrace 1.15, written by Peter Selinger 2001-2017
</metadata>
<g transform="translate(0.000000,444.000000) scale(0.100000,-0.100000)"
fill="#000000" stroke="none">
<path d="M0 2220 l0 -2220 1538 0 c1670 0 1657 0 1925 56 618 130 1029 419
1276 894 139 267 217 560 252 942 17 192 6 639 -19 798 -66 399 -193 729 -389
1003 -76 106 -247 277 -348 349 -284 200 -648 333 -1045 383 -107 13 -340 15
-1657 15 l-1533 0 0 -2220z m2995 1880 c549 -37 949 -198 1240 -501 290 -301
437 -683 464 -1209 14 -260 -6 -537 -56 -774 -140 -675 -553 -1089 -1220
-1225 -267 -55 -243 -54 -1720 -58 l-1373 -4 0 1890 0 1891 1258 0 c726 0
1320 -5 1407 -10z"/>
<path d="M1690 3376 l0 -414 138 -4 c131 -3 142 -5 197 -33 46 -24 68 -43 101
-92 54 -79 64 -114 71 -238 9 -174 -28 -278 -131 -373 -75 -68 -147 -92 -278
-92 l-98 0 0 -791 0 -791 638 5 c669 6 755 11 984 57 540 110 896 410 1046
880 51 161 92 423 92 593 l0 57 -290 0 -290 0 0 410 0 410 115 0 115 0 0 -290
0 -290 170 0 170 0 0 24 c0 59 -32 270 -56 366 -36 143 -88 259 -177 392 -216
326 -559 521 -1042 592 -183 28 -395 36 -937 36 l-538 0 0 -414z m1200 -496
l0 -80 -200 0 -200 0 0 -85 0 -85 200 0 200 0 0 -80 0 -80 -200 0 -200 0 0
-85 0 -85 200 0 200 0 0 -80 0 -80 -275 0 -275 0 0 410 0 410 275 0 275 0 0
-80z m670 -102 c40 -101 73 -196 75 -213 2 -16 31 -97 65 -180 34 -82 71 -171
81 -197 l19 -48 -98 0 -97 0 -30 83 -30 82 -147 3 -146 3 -30 -83 -30 -83 -97
-3 c-90 -3 -97 -1 -93 15 7 23 298 785 304 795 3 4 45 8 94 8 l88 0 72 -182z"/>
<path d="M3362 2668 c-17 -51 -33 -101 -37 -110 -6 -16 1 -18 70 -18 56 0 76
3 73 13 -19 67 -62 194 -68 200 -4 5 -21 -33 -38 -85z"/>
<path d="M851 3064 c-217 -58 -356 -261 -337 -491 7 -90 32 -156 91 -244 52
-78 86 -107 170 -146 79 -36 215 -44 311 -18 335 91 448 532 200 781 -115 114
-281 159 -435 118z"/>
<path d="M1680 2540 l0 -250 70 0 c75 0 184 35 213 68 29 34 42 96 42 207 0
95 -3 116 -23 157 -29 59 -54 68 -193 68 l-109 0 0 -250z"/>
<path d="M560 1275 l0 -705 405 0 405 0 0 705 0 705 -405 0 -405 0 0 -705z"/>
</g>
</svg>
