<?xml version="1.0" standalone="no"?>
<!DOCTYPE svg PUBLIC "-//W3C//DTD SVG 20010904//EN"
 "http://www.w3.org/TR/2001/REC-SVG-20010904/DTD/svg10.dtd">
<svg version="1.0" xmlns="http://www.w3.org/2000/svg"
 width="170.000000pt" height="160.000000pt" viewBox="0 0 170.000000 160.000000"
 preserveAspectRatio="xMidYMid meet">
<metadata>
Created by potrace 1.15, written by Peter Selinger 2001-2017
</metadata>
<g transform="translate(0.000000,160.000000) scale(0.100000,-0.100000)"
fill="#000000" stroke="none">
<path d="M1187 1585 c-21 -8 -52 -24 -70 -36 -48 -33 -157 -140 -173 -171 -30
-58 -9 -119 51 -144 50 -21 90 -4 165 70 81 81 124 101 183 85 55 -15 121 -81
136 -137 24 -86 11 -106 -202 -316 -105 -104 -211 -202 -236 -218 -58 -37 -98
-36 -146 2 -46 37 -68 44 -110 36 -47 -9 -75 -48 -75 -102 0 -56 39 -102 118
-141 48 -24 70 -28 137 -28 131 0 176 28 417 259 285 272 314 318 306 490 -5
113 -36 182 -115 257 -79 75 -148 103 -258 106 -59 2 -103 -2 -128 -12z"/>
<path d="M715 1082 c-98 -34 -150 -75 -358 -281 -255 -253 -262 -264 -262
-426 0 -92 4 -118 22 -158 31 -66 115 -152 182 -184 51 -25 66 -28 166 -28
104 0 114 2 175 32 43 21 89 56 135 103 68 69 70 72 70 121 0 67 -33 99 -101
99 -42 0 -50 -5 -118 -69 -112 -106 -187 -115 -275 -35 -51 45 -68 103 -50
165 11 37 43 73 202 229 103 102 209 197 235 212 61 36 110 37 152 2 19 -17
47 -28 75 -32 39 -4 47 -1 75 26 25 25 30 38 30 78 0 42 -4 51 -39 85 -77 73
-208 98 -316 61z"/>
</g>
</svg>
