<?xml version="1.0" standalone="no"?>
<!DOCTYPE svg PUBLIC "-//W3C//DTD SVG 20010904//EN"
 "http://www.w3.org/TR/2001/REC-SVG-20010904/DTD/svg10.dtd">
<svg version="1.0" xmlns="http://www.w3.org/2000/svg"
 width="160.000000pt" height="160.000000pt" viewBox="0 0 160.000000 160.000000"
 preserveAspectRatio="xMidYMid meet">
<metadata>
Created by potrace 1.15, written by Peter Selinger 2001-2017
</metadata>
<g transform="translate(0.000000,160.000000) scale(0.100000,-0.100000)"
fill="#000000" stroke="none">
<path d="M477 1584 c-215 -52 -411 -249 -462 -465 -19 -82 -19 -236 0 -318 52
-219 247 -414 466 -466 82 -19 236 -19 317 0 222 52 408 237 466 462 21 80 21
246 0 326 -58 226 -244 409 -467 462 -78 18 -243 18 -320 -1z m293 -171 c79
-21 148 -64 212 -131 88 -92 130 -196 130 -322 0 -126 -42 -230 -131 -323 -96
-101 -205 -148 -341 -148 -126 0 -221 37 -313 121 -106 97 -157 210 -157 350
0 138 49 249 154 348 121 114 277 151 446 105z"/>
<path d="M1195 400 l-60 -60 170 -170 c93 -94 174 -170 180 -170 13 0 115 102
115 115 0 10 -331 345 -340 345 -3 0 -32 -27 -65 -60z"/>
</g>
</svg>
