<?xml version="1.0" standalone="no"?>
<!DOCTYPE svg PUBLIC "-//W3C//DTD SVG 20010904//EN"
 "http://www.w3.org/TR/2001/REC-SVG-20010904/DTD/svg10.dtd">
<svg version="1.0" xmlns="http://www.w3.org/2000/svg"
 width="150.000000pt" height="150.000000pt" viewBox="0 0 150.000000 150.000000"
 preserveAspectRatio="xMidYMid meet">
<metadata>
Created by potrace 1.15, written by Peter Selinger 2001-2017
</metadata>
<g transform="translate(0.000000,150.000000) scale(0.100000,-0.100000)"
fill="#000000" stroke="none">
<path d="M1049 1421 c-71 -46 -818 -805 -867 -881 -38 -59 -46 -86 -89 -273
-25 -114 -43 -210 -40 -214 4 -3 91 13 195 36 191 43 213 52 337 134 71 47
794 761 836 826 31 49 39 123 19 177 -14 36 -164 189 -205 208 -55 26 -134 21
-186 -13z m-196 -804 c-159 -158 -303 -297 -322 -309 l-33 -21 -111 111 -111
111 314 316 314 315 118 -117 118 -118 -287 -288z"/>
</g>
</svg>
