<?xml version="1.0" standalone="no"?>
<!DOCTYPE svg PUBLIC "-//W3C//DTD SVG 20010904//EN"
 "http://www.w3.org/TR/2001/REC-SVG-20010904/DTD/svg10.dtd">
<svg version="1.0" xmlns="http://www.w3.org/2000/svg"
 width="200.000000pt" height="200.000000pt" viewBox="0 0 200.000000 200.000000"
 preserveAspectRatio="xMidYMid meet">
<metadata>
Created by potrace 1.15, written by Peter Selinger 2001-2017
</metadata>
<g transform="translate(0.000000,200.000000) scale(0.100000,-0.100000)"
fill="#000000" stroke="none">
<path d="M1319 1921 c-48 -49 -34 -142 26 -169 15 -7 72 -12 133 -12 l107 -1
-333 -327 c-249 -245 -335 -335 -342 -360 -14 -51 7 -103 51 -127 69 -36 75
-32 443 328 l336 329 0 -107 c0 -117 11 -153 55 -173 47 -21 94 -15 126 17
l29 29 0 270 0 270 -26 31 -26 31 -275 0 -275 0 -29 -29z"/>
<path d="M319 1766 c-106 -28 -211 -122 -249 -222 -20 -55 -20 -70 -18 -642
l3 -587 27 -57 c34 -73 103 -142 176 -176 l57 -27 587 -3 c574 -2 587 -2 642
18 78 30 157 104 198 188 l33 67 3 384 c3 404 1 426 -42 456 -11 8 -40 15 -63
15 -33 0 -50 -7 -75 -29 l-33 -29 -5 -380 c-5 -365 -6 -382 -26 -408 -11 -15
-33 -37 -48 -48 -27 -21 -40 -21 -559 -24 l-532 -2 -45 22 c-33 17 -51 35 -68
68 l-22 45 2 532 c3 522 3 532 24 560 11 15 36 38 54 51 33 22 37 22 377 22
369 0 393 3 427 51 9 13 16 41 16 62 0 31 -7 46 -34 73 l-34 34 -364 -1 c-254
0 -377 -4 -409 -13z"/>
</g>
</svg>
