<?xml version="1.0" standalone="no"?>
<!DOCTYPE svg PUBLIC "-//W3C//DTD SVG 20010904//EN"
 "http://www.w3.org/TR/2001/REC-SVG-20010904/DTD/svg10.dtd">
<svg version="1.0" xmlns="http://www.w3.org/2000/svg"
 width="150.000000pt" height="140.000000pt" viewBox="0 0 150.000000 140.000000"
 preserveAspectRatio="xMidYMid meet">
<metadata>
Created by potrace 1.15, written by Peter Selinger 2001-2017
</metadata>
<g transform="translate(0.000000,140.000000) scale(0.100000,-0.100000)"
fill="#000000" stroke="none">
<path d="M722 1276 c-15 -24 -62 -115 -106 -203 l-78 -159 -225 -32 c-123 -17
-228 -34 -233 -37 -6 -4 -10 -19 -10 -34 0 -21 13 -40 53 -77 28 -26 101 -95
161 -152 l109 -103 -38 -219 c-41 -231 -40 -250 6 -250 10 0 106 45 213 101
l195 100 205 -103 c222 -111 238 -114 244 -51 2 16 -13 117 -33 224 l-35 194
165 160 c91 88 165 167 165 176 0 9 -6 22 -14 28 -7 6 -113 25 -235 43 l-222
31 -101 196 c-56 108 -106 199 -112 203 -25 17 -48 6 -74 -36z"/>
</g>
</svg>
