<?xml version="1.0" standalone="no"?>
<!DOCTYPE svg PUBLIC "-//W3C//DTD SVG 20010904//EN"
 "http://www.w3.org/TR/2001/REC-SVG-20010904/DTD/svg10.dtd">
<svg version="1.0" xmlns="http://www.w3.org/2000/svg"
 width="300.000000pt" height="300.000000pt" viewBox="0 0 300.000000 300.000000"
 preserveAspectRatio="xMidYMid meet">
<metadata>
Created by potrace 1.15, written by Peter Selinger 2001-2017
</metadata>
<g transform="translate(0.000000,300.000000) scale(0.100000,-0.100000)"
fill="#000000" stroke="none">
<path d="M1300 2979 c-363 -95 -610 -427 -610 -819 0 -246 91 -463 262 -626
89 -84 170 -135 278 -174 281 -103 585 -38 807 173 172 164 263 380 263 627 0
396 -247 726 -614 820 -107 27 -281 27 -386 -1z m340 -226 c139 -38 277 -145
353 -274 166 -283 84 -655 -185 -835 -189 -126 -410 -132 -602 -16 -122 73
-224 205 -269 347 -33 106 -31 282 5 383 37 102 82 174 156 247 146 146 348
201 542 148z"/>
<path d="M800 1151 c-145 -32 -263 -87 -388 -181 -252 -189 -412 -509 -412
-822 0 -86 1 -91 29 -119 l29 -29 1442 0 1442 0 29 29 c28 28 29 33 29 119 0
251 -103 508 -285 709 -107 120 -302 238 -471 285 -77 22 -93 23 -719 25 -589
2 -647 1 -725 -16z m1342 -226 c81 -17 169 -52 245 -96 82 -48 222 -190 271
-275 48 -80 97 -207 107 -277 l7 -47 -1272 0 -1272 0 7 47 c10 70 59 197 107
277 50 86 190 228 270 275 75 43 165 79 242 96 92 20 1194 20 1288 0z"/>
</g>
</svg>
