<?xml version="1.0" standalone="no"?>
<!DOCTYPE svg PUBLIC "-//W3C//DTD SVG 20010904//EN"
 "http://www.w3.org/TR/2001/REC-SVG-20010904/DTD/svg10.dtd">
<svg version="1.0" xmlns="http://www.w3.org/2000/svg"
 width="250.000000pt" height="260.000000pt" viewBox="0 0 250.000000 260.000000"
 preserveAspectRatio="xMidYMid meet">
<metadata>
Created by potrace 1.15, written by Peter Selinger 2001-2017
</metadata>
<g transform="translate(0.000000,260.000000) scale(0.100000,-0.100000)"
fill="#000000" stroke="none">
<path d="M1652 2482 c-290 -104 -402 -484 -222 -754 l38 -57 -72 -43 c-39 -24
-74 -44 -77 -46 -4 -2 -21 23 -39 54 -44 79 -114 145 -195 185 -67 33 -74 34
-185 34 -104 0 -121 -3 -173 -27 -31 -15 -82 -50 -112 -79 -110 -104 -158
-215 -157 -369 0 -116 24 -199 82 -289 23 -35 40 -64 38 -65 -203 -91 -381
-283 -458 -495 -65 -178 -25 -330 108 -409 l47 -27 428 -3 428 -3 29 30 c24
23 30 38 30 71 0 52 -13 76 -50 95 -24 13 -91 15 -424 15 l-395 0 -20 26 c-27
35 -26 71 3 144 92 226 309 391 546 415 120 12 265 -26 375 -99 64 -42 90 -48
131 -31 40 17 54 41 54 96 0 36 -6 47 -38 78 -21 20 -62 49 -92 65 -30 16 -56
30 -58 31 -2 2 15 29 38 61 40 58 80 163 80 212 0 66 192 188 345 219 141 29
302 -6 432 -92 70 -47 120 -48 157 -4 19 22 26 42 26 71 0 35 -6 47 -38 77
-21 20 -62 49 -92 65 -30 16 -56 30 -58 31 -2 2 15 31 38 66 59 92 83 174 82
289 0 154 -42 255 -149 363 -26 26 -77 62 -112 80 -58 28 -76 32 -165 35 -79
2 -113 -2 -154 -16z m248 -215 c51 -26 112 -100 129 -157 55 -185 -70 -371
-250 -370 -177 1 -300 230 -215 403 67 137 209 189 336 124z m-934 -622 c136
-40 220 -200 179 -342 -36 -124 -129 -202 -241 -203 -64 0 -113 20 -165 67
-59 53 -81 104 -87 196 -4 71 -2 82 27 142 36 72 88 120 154 141 55 17 74 17
133 -1z"/>
<path d="M2252 973 c-11 -10 -112 -157 -223 -328 -216 -333 -239 -362 -261
-349 -7 5 -76 74 -152 154 -76 80 -148 150 -160 157 -37 21 -75 15 -107 -16
-24 -24 -29 -38 -29 -76 0 -45 3 -51 77 -129 276 -290 284 -296 383 -296 68 0
119 21 161 67 14 15 124 177 243 359 204 312 216 333 216 378 0 36 -5 52 -25
71 -30 30 -92 34 -123 8z"/>
</g>
</svg>
